<?xml version="1.0" encoding="UTF-8"?>
<!-- by Kyo from comicfury.com -->
<svg width="54px" height="50px" version="1.1" viewBox="0 0 149.37 138.31" xmlns="http://www.w3.org/2000/svg" xmlns:cc="http://creativecommons.org/ns#" xmlns:dc="http://purl.org/dc/elements/1.1/" xmlns:rdf="http://www.w3.org/1999/02/22-rdf-syntax-ns#">
 <metadata>
  <rdf:RDF>
   <cc:Work rdf:about="">
    <dc:format>image/svg+xml</dc:format>
    <dc:type rdf:resource="http://purl.org/dc/dcmitype/StillImage"/>
    <dc:title/>
   </cc:Work>
  </rdf:RDF>
 </metadata>
 <g transform="translate(-31.15 -79.014)">
  <path transform="matrix(.26458 0 0 .26458 31.15 79.014)" d="m260.77 9.4492c-9.8279 0.1474-19.212 4.1166-26.162 11.066l-214.15 214.16c-14.753 14.76-14.753 38.684 0 53.443l214.15 214.16c14.761 14.759 38.692 14.759 53.453 0l6-6c14.755-14.76 14.755-38.685 0-53.445l-181.42-181.43 181.43-181.43c14.758-14.761 14.758-38.69 0-53.451l-6-6.002c-7.2268-7.2223-17.07-11.211-27.285-11.059l-0.01368-0.0078124zm250.02 0c-9.8279 0.1474-19.212 4.1166-26.162 11.066l-214.15 214.16c-14.753 14.76-14.753 38.684 0 53.443l214.15 214.16c14.761 14.759 38.692 14.759 53.453 0l6-6c14.755-14.76 14.755-38.685 0-53.445l-181.42-181.43 181.43-181.43c14.758-14.761 14.758-38.69 0-53.451l-6-6.002c-7.2268-7.2223-17.069-11.211-27.285-11.059l-0.01367-0.0078124z" color="#000000" color-rendering="auto" dominant-baseline="auto" fill="#fff" image-rendering="auto" opacity=".99" shape-rendering="auto" solid-color="#000000" stroke="#000" stroke-linejoin="round" stroke-width="18.898" style="font-feature-settings:normal;font-variant-alternates:normal;font-variant-caps:normal;font-variant-ligatures:normal;font-variant-numeric:normal;font-variant-position:normal;isolation:auto;mix-blend-mode:normal;paint-order:markers fill stroke;shape-padding:0;text-decoration-color:#000000;text-decoration-line:none;text-decoration-style:solid;text-indent:0;text-orientation:mixed;text-transform:none;white-space:normal"/>
 </g>
</svg>